G04 EAGLE Gerber RS-274X export*
G75*
%MOMM*%
%FSLAX34Y34*%
%LPD*%
%INTop Copper*%
%IPPOS*%
%AMOC8*
5,1,8,0,0,1.08239X$1,22.5*%
G01*
%ADD10R,0.900000X0.850000*%
%ADD11R,1.270000X3.048000*%
%ADD12R,1.270000X2.540000*%
%ADD13C,0.254000*%


D10*
X61530Y171760D03*
X61530Y183360D03*
X61910Y281560D03*
X61910Y293160D03*
D11*
X87160Y179570D03*
X112560Y179570D03*
X114700Y283650D03*
X89300Y283650D03*
D12*
X112550Y54730D03*
X46380Y54680D03*
X81650Y54290D03*
X147620Y56020D03*
D13*
X87990Y171760D02*
X61530Y171760D01*
X87990Y171760D02*
X88040Y171810D01*
X112550Y124180D02*
X112550Y54730D01*
X87990Y148740D02*
X87990Y171760D01*
X87990Y148740D02*
X112550Y124180D01*
X61910Y293160D02*
X63180Y294430D01*
X74920Y294430D01*
X90070Y294430D01*
X37960Y63100D02*
X46380Y54680D01*
X37960Y63100D02*
X37960Y295280D01*
X51490Y308810D01*
X67260Y308810D01*
X74920Y301150D01*
X74920Y294430D01*
X61910Y281560D02*
X61910Y215920D01*
X61910Y183740D01*
X61530Y183360D01*
X47420Y201430D02*
X61910Y215920D01*
X47420Y201430D02*
X47420Y124840D01*
X81650Y90610D01*
X81650Y54290D01*
X114700Y206000D02*
X114700Y283650D01*
X114700Y206000D02*
X114700Y187030D01*
X113330Y185660D01*
X114700Y206000D02*
X146590Y174110D01*
X146590Y63070D01*
M02*
