G04 EAGLE Gerber RS-274X export*
G75*
%MOMM*%
%FSLAX34Y34*%
%LPD*%
%INSilkscreen Top*%
%IPPOS*%
%AMOC8*
5,1,8,0,0,1.08239X$1,22.5*%
G01*
%ADD10C,0.127000*%
%ADD11C,0.101600*%


D10*
X53275Y170733D02*
X53275Y172342D01*
X53273Y172407D01*
X53267Y172471D01*
X53257Y172535D01*
X53244Y172599D01*
X53226Y172661D01*
X53205Y172722D01*
X53181Y172782D01*
X53152Y172840D01*
X53120Y172897D01*
X53085Y172951D01*
X53047Y173003D01*
X53005Y173053D01*
X52961Y173100D01*
X52914Y173144D01*
X52864Y173186D01*
X52812Y173224D01*
X52758Y173259D01*
X52701Y173291D01*
X52643Y173320D01*
X52583Y173344D01*
X52522Y173365D01*
X52460Y173383D01*
X52396Y173396D01*
X52332Y173406D01*
X52268Y173412D01*
X52203Y173414D01*
X51666Y173414D01*
X51601Y173412D01*
X51537Y173406D01*
X51473Y173396D01*
X51409Y173383D01*
X51347Y173365D01*
X51286Y173344D01*
X51226Y173320D01*
X51168Y173291D01*
X51111Y173259D01*
X51057Y173224D01*
X51005Y173186D01*
X50955Y173144D01*
X50908Y173100D01*
X50864Y173053D01*
X50822Y173003D01*
X50784Y172951D01*
X50749Y172897D01*
X50717Y172840D01*
X50688Y172782D01*
X50664Y172722D01*
X50643Y172661D01*
X50625Y172599D01*
X50612Y172535D01*
X50602Y172471D01*
X50596Y172407D01*
X50594Y172342D01*
X50594Y170733D01*
X48449Y170733D01*
X48449Y173414D01*
X49119Y176622D02*
X49228Y176571D01*
X49339Y176523D01*
X49450Y176479D01*
X49563Y176438D01*
X49678Y176400D01*
X49793Y176366D01*
X49909Y176336D01*
X50026Y176309D01*
X50144Y176285D01*
X50263Y176265D01*
X50382Y176249D01*
X50502Y176236D01*
X50622Y176227D01*
X50742Y176222D01*
X50862Y176220D01*
X49119Y176622D02*
X49062Y176643D01*
X49006Y176669D01*
X48951Y176697D01*
X48899Y176729D01*
X48848Y176765D01*
X48800Y176803D01*
X48754Y176844D01*
X48711Y176888D01*
X48671Y176934D01*
X48634Y176983D01*
X48600Y177035D01*
X48569Y177088D01*
X48541Y177143D01*
X48517Y177199D01*
X48496Y177257D01*
X48479Y177316D01*
X48466Y177376D01*
X48457Y177437D01*
X48451Y177499D01*
X48449Y177560D01*
X48451Y177621D01*
X48457Y177683D01*
X48466Y177744D01*
X48479Y177804D01*
X48496Y177863D01*
X48517Y177921D01*
X48541Y177977D01*
X48569Y178032D01*
X48600Y178085D01*
X48634Y178137D01*
X48671Y178186D01*
X48711Y178232D01*
X48754Y178276D01*
X48800Y178317D01*
X48848Y178355D01*
X48899Y178391D01*
X48951Y178423D01*
X49006Y178451D01*
X49062Y178477D01*
X49119Y178498D01*
X49228Y178549D01*
X49339Y178597D01*
X49450Y178641D01*
X49563Y178682D01*
X49678Y178720D01*
X49793Y178754D01*
X49909Y178784D01*
X50026Y178811D01*
X50144Y178835D01*
X50263Y178855D01*
X50382Y178871D01*
X50502Y178884D01*
X50622Y178893D01*
X50742Y178898D01*
X50862Y178900D01*
X50862Y176220D02*
X50982Y176222D01*
X51102Y176227D01*
X51222Y176236D01*
X51342Y176249D01*
X51461Y176265D01*
X51580Y176285D01*
X51698Y176309D01*
X51815Y176336D01*
X51931Y176366D01*
X52046Y176400D01*
X52161Y176438D01*
X52274Y176479D01*
X52385Y176523D01*
X52496Y176571D01*
X52605Y176622D01*
X52662Y176643D01*
X52718Y176669D01*
X52773Y176697D01*
X52825Y176729D01*
X52876Y176765D01*
X52924Y176803D01*
X52970Y176844D01*
X53013Y176888D01*
X53053Y176934D01*
X53090Y176983D01*
X53124Y177035D01*
X53155Y177088D01*
X53183Y177143D01*
X53207Y177199D01*
X53228Y177257D01*
X53245Y177316D01*
X53258Y177376D01*
X53267Y177437D01*
X53273Y177499D01*
X53275Y177560D01*
X52605Y178498D02*
X52496Y178549D01*
X52385Y178597D01*
X52274Y178641D01*
X52161Y178682D01*
X52046Y178720D01*
X51931Y178754D01*
X51815Y178784D01*
X51698Y178811D01*
X51580Y178835D01*
X51461Y178855D01*
X51342Y178871D01*
X51222Y178884D01*
X51102Y178893D01*
X50982Y178898D01*
X50862Y178900D01*
X52605Y178498D02*
X52662Y178477D01*
X52718Y178451D01*
X52773Y178423D01*
X52825Y178391D01*
X52876Y178355D01*
X52924Y178317D01*
X52970Y178276D01*
X53013Y178232D01*
X53053Y178185D01*
X53090Y178137D01*
X53124Y178085D01*
X53155Y178032D01*
X53183Y177977D01*
X53207Y177921D01*
X53228Y177863D01*
X53245Y177804D01*
X53258Y177744D01*
X53267Y177683D01*
X53273Y177621D01*
X53275Y177560D01*
X52203Y176488D02*
X49521Y178632D01*
X50862Y181706D02*
X50742Y181708D01*
X50622Y181713D01*
X50502Y181722D01*
X50382Y181735D01*
X50263Y181751D01*
X50144Y181771D01*
X50026Y181795D01*
X49909Y181822D01*
X49793Y181852D01*
X49678Y181886D01*
X49563Y181924D01*
X49450Y181965D01*
X49339Y182009D01*
X49228Y182057D01*
X49119Y182108D01*
X49062Y182129D01*
X49006Y182155D01*
X48951Y182183D01*
X48899Y182215D01*
X48848Y182251D01*
X48800Y182289D01*
X48754Y182330D01*
X48711Y182374D01*
X48671Y182420D01*
X48634Y182469D01*
X48600Y182521D01*
X48569Y182574D01*
X48541Y182629D01*
X48517Y182685D01*
X48496Y182743D01*
X48479Y182802D01*
X48466Y182862D01*
X48457Y182923D01*
X48451Y182985D01*
X48449Y183046D01*
X48451Y183107D01*
X48457Y183169D01*
X48466Y183230D01*
X48479Y183290D01*
X48496Y183349D01*
X48517Y183407D01*
X48541Y183463D01*
X48569Y183518D01*
X48600Y183571D01*
X48634Y183623D01*
X48671Y183672D01*
X48711Y183718D01*
X48754Y183762D01*
X48800Y183803D01*
X48848Y183841D01*
X48899Y183877D01*
X48951Y183909D01*
X49006Y183937D01*
X49062Y183963D01*
X49119Y183984D01*
X49119Y183985D02*
X49228Y184036D01*
X49339Y184084D01*
X49450Y184128D01*
X49563Y184169D01*
X49678Y184207D01*
X49793Y184241D01*
X49909Y184271D01*
X50026Y184298D01*
X50144Y184322D01*
X50263Y184342D01*
X50382Y184358D01*
X50502Y184371D01*
X50622Y184380D01*
X50742Y184385D01*
X50862Y184387D01*
X50862Y181706D02*
X50982Y181708D01*
X51102Y181713D01*
X51222Y181722D01*
X51342Y181735D01*
X51461Y181751D01*
X51580Y181771D01*
X51698Y181795D01*
X51815Y181822D01*
X51931Y181852D01*
X52046Y181886D01*
X52161Y181924D01*
X52274Y181965D01*
X52385Y182009D01*
X52496Y182057D01*
X52605Y182108D01*
X52662Y182129D01*
X52718Y182155D01*
X52773Y182183D01*
X52825Y182215D01*
X52876Y182251D01*
X52924Y182289D01*
X52970Y182330D01*
X53013Y182374D01*
X53053Y182420D01*
X53090Y182469D01*
X53124Y182521D01*
X53155Y182574D01*
X53183Y182629D01*
X53207Y182685D01*
X53228Y182743D01*
X53245Y182802D01*
X53258Y182862D01*
X53267Y182923D01*
X53273Y182985D01*
X53275Y183046D01*
X52605Y183985D02*
X52496Y184036D01*
X52385Y184084D01*
X52274Y184128D01*
X52161Y184169D01*
X52046Y184207D01*
X51931Y184241D01*
X51815Y184271D01*
X51698Y184298D01*
X51580Y184322D01*
X51461Y184342D01*
X51342Y184358D01*
X51222Y184371D01*
X51102Y184380D01*
X50982Y184385D01*
X50862Y184387D01*
X52605Y183984D02*
X52662Y183963D01*
X52718Y183937D01*
X52773Y183909D01*
X52825Y183877D01*
X52876Y183841D01*
X52924Y183803D01*
X52970Y183762D01*
X53013Y183718D01*
X53053Y183671D01*
X53090Y183623D01*
X53124Y183571D01*
X53155Y183518D01*
X53183Y183463D01*
X53207Y183407D01*
X53228Y183349D01*
X53245Y183290D01*
X53258Y183230D01*
X53267Y183169D01*
X53273Y183107D01*
X53275Y183046D01*
X52203Y181974D02*
X49521Y184119D01*
X49901Y283112D02*
X48829Y284452D01*
X53655Y284452D01*
X53655Y283112D02*
X53655Y285793D01*
X53655Y288927D02*
X48829Y288927D01*
X48829Y291608D02*
X51778Y288927D01*
X50706Y290000D02*
X53655Y291608D01*
X75040Y177030D02*
X130340Y177030D01*
X126820Y286190D02*
X71520Y286190D01*
D11*
X31551Y33732D02*
X35445Y22048D01*
X39340Y33732D01*
X43743Y26592D02*
X51532Y26592D01*
X106858Y33052D02*
X110753Y21368D01*
X114647Y33052D01*
X119050Y25912D02*
X126839Y25912D01*
X122945Y29806D02*
X122945Y22017D01*
X75688Y22608D02*
X75688Y34292D01*
X78934Y34292D01*
X79047Y34290D01*
X79160Y34284D01*
X79273Y34274D01*
X79386Y34260D01*
X79498Y34243D01*
X79609Y34221D01*
X79719Y34196D01*
X79829Y34166D01*
X79937Y34133D01*
X80044Y34096D01*
X80150Y34056D01*
X80254Y34011D01*
X80357Y33963D01*
X80458Y33912D01*
X80557Y33857D01*
X80654Y33799D01*
X80749Y33737D01*
X80842Y33672D01*
X80932Y33604D01*
X81020Y33533D01*
X81106Y33458D01*
X81189Y33381D01*
X81269Y33301D01*
X81346Y33218D01*
X81421Y33132D01*
X81492Y33044D01*
X81560Y32954D01*
X81625Y32861D01*
X81687Y32766D01*
X81745Y32669D01*
X81800Y32570D01*
X81851Y32469D01*
X81899Y32366D01*
X81944Y32262D01*
X81984Y32156D01*
X82021Y32049D01*
X82054Y31941D01*
X82084Y31831D01*
X82109Y31721D01*
X82131Y31610D01*
X82148Y31498D01*
X82162Y31385D01*
X82172Y31272D01*
X82178Y31159D01*
X82180Y31046D01*
X82179Y31046D02*
X82179Y25854D01*
X82180Y25854D02*
X82178Y25741D01*
X82172Y25628D01*
X82162Y25515D01*
X82148Y25402D01*
X82131Y25290D01*
X82109Y25179D01*
X82084Y25069D01*
X82054Y24959D01*
X82021Y24851D01*
X81984Y24744D01*
X81944Y24638D01*
X81899Y24534D01*
X81851Y24431D01*
X81800Y24330D01*
X81745Y24231D01*
X81687Y24134D01*
X81625Y24039D01*
X81560Y23946D01*
X81492Y23856D01*
X81421Y23768D01*
X81346Y23682D01*
X81269Y23599D01*
X81189Y23519D01*
X81106Y23442D01*
X81020Y23367D01*
X80932Y23296D01*
X80842Y23228D01*
X80749Y23163D01*
X80654Y23101D01*
X80557Y23043D01*
X80458Y22988D01*
X80357Y22937D01*
X80254Y22889D01*
X80150Y22844D01*
X80044Y22804D01*
X79937Y22767D01*
X79829Y22734D01*
X79719Y22704D01*
X79609Y22679D01*
X79498Y22657D01*
X79386Y22640D01*
X79273Y22626D01*
X79160Y22616D01*
X79047Y22610D01*
X78934Y22608D01*
X75688Y22608D01*
X87612Y27152D02*
X95401Y27152D01*
X141248Y24258D02*
X141248Y35942D01*
X144494Y35942D01*
X144607Y35940D01*
X144720Y35934D01*
X144833Y35924D01*
X144946Y35910D01*
X145058Y35893D01*
X145169Y35871D01*
X145279Y35846D01*
X145389Y35816D01*
X145497Y35783D01*
X145604Y35746D01*
X145710Y35706D01*
X145814Y35661D01*
X145917Y35613D01*
X146018Y35562D01*
X146117Y35507D01*
X146214Y35449D01*
X146309Y35387D01*
X146402Y35322D01*
X146492Y35254D01*
X146580Y35183D01*
X146666Y35108D01*
X146749Y35031D01*
X146829Y34951D01*
X146906Y34868D01*
X146981Y34782D01*
X147052Y34694D01*
X147120Y34604D01*
X147185Y34511D01*
X147247Y34416D01*
X147305Y34319D01*
X147360Y34220D01*
X147411Y34119D01*
X147459Y34016D01*
X147504Y33912D01*
X147544Y33806D01*
X147581Y33699D01*
X147614Y33591D01*
X147644Y33481D01*
X147669Y33371D01*
X147691Y33260D01*
X147708Y33148D01*
X147722Y33035D01*
X147732Y32922D01*
X147738Y32809D01*
X147740Y32696D01*
X147739Y32696D02*
X147739Y27504D01*
X147740Y27504D02*
X147738Y27391D01*
X147732Y27278D01*
X147722Y27165D01*
X147708Y27052D01*
X147691Y26940D01*
X147669Y26829D01*
X147644Y26719D01*
X147614Y26609D01*
X147581Y26501D01*
X147544Y26394D01*
X147504Y26288D01*
X147459Y26184D01*
X147411Y26081D01*
X147360Y25980D01*
X147305Y25881D01*
X147247Y25784D01*
X147185Y25689D01*
X147120Y25596D01*
X147052Y25506D01*
X146981Y25418D01*
X146906Y25332D01*
X146829Y25249D01*
X146749Y25169D01*
X146666Y25092D01*
X146580Y25017D01*
X146492Y24946D01*
X146402Y24878D01*
X146309Y24813D01*
X146214Y24751D01*
X146117Y24693D01*
X146018Y24638D01*
X145917Y24587D01*
X145814Y24539D01*
X145710Y24494D01*
X145604Y24454D01*
X145497Y24417D01*
X145389Y24384D01*
X145279Y24354D01*
X145169Y24329D01*
X145058Y24307D01*
X144946Y24290D01*
X144833Y24276D01*
X144720Y24266D01*
X144607Y24260D01*
X144494Y24258D01*
X141248Y24258D01*
X153172Y28802D02*
X160961Y28802D01*
X157067Y32696D02*
X157067Y24907D01*
M02*
